<svg width="97" height="44" viewBox="0 0 97 44" fill="none" xmlns="http://www.w3.org/2000/svg">
<path d="M16.7348 25.393C16.9419 26.3468 16.9131 27.27 16.6485 28.1624C16.3804 29.0393 15.8456 29.8185 15.0439 30.5001C14.2423 31.1817 13.1691 31.6685 11.8245 31.9604L9.33839 32.5002L10.6216 38.4105L6.61107 39.2813L3.03635 22.8169L9.53298 21.4063C10.8464 21.1212 12.0057 21.1069 13.0111 21.3634C14.0164 21.6199 14.8323 22.0977 15.4589 22.7967C16.0855 23.4956 16.5108 24.3611 16.7348 25.393ZM10.827 28.8369C11.5932 28.6706 12.1249 28.3669 12.422 27.9258C12.7192 27.4847 12.7965 26.9358 12.6539 26.2791C12.5113 25.6224 12.2134 25.155 11.76 24.8768C11.3067 24.5987 10.697 24.5428 9.93081 24.7091L7.74963 25.1827L8.64586 29.3105L10.827 28.8369ZM31.3704 22.2154C31.5775 23.1692 31.5487 24.0923 31.284 24.9848C31.016 25.8616 30.4811 26.6408 29.6795 27.3224C28.8779 28.0041 27.8047 28.4908 26.46 28.7828L23.974 29.3226L25.2572 35.2329L21.2466 36.1036L17.6719 19.6392L24.1686 18.2287C25.482 17.9435 26.6413 17.9292 27.6466 18.1857C28.652 18.4423 29.4679 18.92 30.0945 19.619C30.721 20.318 31.1464 21.1834 31.3704 22.2154ZM25.4626 25.6593C26.2288 25.493 26.7604 25.1892 27.0576 24.7481C27.3548 24.307 27.4321 23.7581 27.2895 23.1014C27.1469 22.4447 26.849 21.9773 26.3956 21.6992C25.9423 21.421 25.3325 21.3651 24.5664 21.5315L22.3852 22.005L23.2814 26.1329L25.4626 25.6593ZM46.006 19.0377C46.2131 19.9915 46.1843 20.9147 45.9196 21.8071C45.6516 22.684 45.1167 23.4632 44.3151 24.1448C43.5134 24.8264 42.4403 25.3132 41.0956 25.6051L38.6095 26.1449L39.8928 32.0552L35.8822 32.926L32.3075 16.4616L38.8041 15.051C40.1175 14.7659 41.2769 14.7516 42.2822 15.0081C43.2875 15.2646 44.1035 15.7424 44.73 16.4414C45.3566 17.1403 45.7819 18.0058 46.006 19.0377ZM40.0982 22.4816C40.8643 22.3153 41.396 22.0116 41.6932 21.5705C41.9903 21.1294 42.0676 20.5805 41.9251 19.9238C41.7825 19.2671 41.4845 18.7997 41.0312 18.5215C40.5778 18.2434 39.9681 18.1875 39.202 18.3538L37.0208 18.8274L37.917 22.9552L40.0982 22.4816ZM61.3878 20.3152C61.4693 20.6905 61.5307 21.0864 61.5721 21.5032L52.4955 23.4738C52.7346 24.2733 53.1284 24.8427 53.6769 25.1821C54.2376 25.5024 54.8541 25.5896 55.5265 25.4436C56.5272 25.2263 57.1313 24.6531 57.3389 23.7239L61.6074 22.7971C61.5752 23.7046 61.3446 24.5651 60.9154 25.3787C60.5019 26.1889 59.9076 26.8828 59.1325 27.4604C58.3574 28.038 57.4382 28.4422 56.375 28.6731C55.0929 28.9515 53.8921 28.9257 52.7726 28.5957C51.6531 28.2657 50.7015 27.6536 49.918 26.7595C49.1344 25.8654 48.595 24.7382 48.2996 23.3779C48.0043 22.0176 48.0199 20.7699 48.3465 19.6347C48.6887 18.4962 49.3008 17.5447 50.1826 16.7802C51.0645 16.0156 52.1543 15.4925 53.4521 15.2107C54.7186 14.9358 55.9021 14.9571 57.0025 15.2749C58.103 15.5926 59.0338 16.1846 59.7949 17.0508C60.5717 17.9137 61.1026 19.0018 61.3878 20.3152ZM57.0543 20.1509C56.9049 19.463 56.5516 18.9666 55.9942 18.6619C55.4369 18.3573 54.8064 18.2813 54.1028 18.4341C53.4305 18.58 52.9022 18.8994 52.518 19.3921C52.1494 19.8815 51.9885 20.4976 52.0352 21.2407L57.0543 20.1509ZM62.7469 20.2166C62.4549 18.8719 62.4488 17.6371 62.7285 16.5122C63.0238 15.3838 63.5498 14.4509 64.3066 13.7136C65.0634 12.9762 65.9812 12.4904 67.0601 12.2562C67.9201 12.0695 68.7409 12.0795 69.5226 12.2864C70.3199 12.4899 70.988 12.8524 71.5269 13.3739L70.2081 7.29941L74.2186 6.42865L77.9869 23.7843L73.9763 24.6551L73.5689 22.7788C73.3295 23.4857 72.8987 24.1031 72.2765 24.6312C71.67 25.1558 70.9055 25.5182 69.983 25.7185C68.9042 25.9528 67.8675 25.8913 66.8731 25.5342C65.8753 25.1614 65.0081 24.5229 64.2714 23.6186C63.547 22.6953 63.0388 21.5613 62.7469 20.2166ZM72.5556 18.1115C72.3383 17.1108 71.8854 16.3823 71.1969 15.926C70.5241 15.4663 69.7889 15.323 68.9915 15.4962C68.1941 15.6693 67.5767 16.1062 67.1395 16.807C66.7144 17.4887 66.6105 18.3299 66.8278 19.3305C67.0451 20.3312 67.4918 21.0692 68.1681 21.5446C68.8566 22.0009 69.5995 22.1425 70.397 21.9693C71.1944 21.7962 71.8039 21.361 72.2256 20.6636C72.6628 19.9629 72.7728 19.1122 72.5556 18.1115ZM90.9698 7.26144L93.8112 20.3485L89.8007 21.2193L89.4137 19.4368C89.1327 20.1036 88.6795 20.6932 88.054 21.2056C87.4407 21.6989 86.7119 22.0373 85.8676 22.2206C84.8669 22.4379 83.9359 22.4108 83.0747 22.1393C82.2101 21.8522 81.4751 21.3323 80.8696 20.5797C80.2641 19.827 79.8375 18.88 79.5897 17.7386L77.9296 10.0927L81.9167 9.22702L83.4596 16.3335C83.6498 17.2091 84.0241 17.84 84.5828 18.2262C85.1415 18.6125 85.8039 18.7225 86.5701 18.5561C87.3518 18.3864 87.9168 18.0099 88.265 17.4268C88.6132 16.8436 88.6923 16.1142 88.5022 15.2386L86.9592 8.1322L90.9698 7.26144Z" fill="white"/>
</svg>
